<svg width="24" height="24" viewBox="0 0 24 24" fill="none" xmlns="http://www.w3.org/2000/svg">
<g clip-path="url(#clip0_853_43)">
<rect width="24" height="24" rx="4" fill="url(#paint0_linear_853_43)"/>
<path d="M11.4943 17H7.88494V6.81818H11.5241C12.5483 6.81818 13.4299 7.02202 14.169 7.42969C14.9081 7.83404 15.4766 8.41572 15.8743 9.17472C16.2753 9.93371 16.4759 10.8419 16.4759 11.8991C16.4759 12.9598 16.2753 13.8712 15.8743 14.6335C15.4766 15.3958 14.9048 15.9808 14.1591 16.3885C13.4167 16.7962 12.5284 17 11.4943 17ZM10.0376 15.1555H11.4048C12.0412 15.1555 12.5765 15.0429 13.0107 14.8175C13.4482 14.5888 13.7763 14.2358 13.995 13.7585C14.2171 13.2779 14.3281 12.6581 14.3281 11.8991C14.3281 11.1468 14.2171 10.532 13.995 10.0547C13.7763 9.57741 13.4498 9.22609 13.0156 9.00071C12.5814 8.77533 12.0462 8.66264 11.4098 8.66264H10.0376V15.1555Z" fill="#994409"/>
</g>
<rect x="0.5" y="0.5" width="23" height="23" rx="3.5" stroke="#994409"/>
<defs>
<linearGradient id="paint0_linear_853_43" x1="12" y1="0" x2="12" y2="24" gradientUnits="userSpaceOnUse">
<stop stop-color="#F7C065"/>
<stop offset="1" stop-color="white"/>
</linearGradient>
<clipPath id="clip0_853_43">
<rect width="24" height="24" rx="4" fill="white"/>
</clipPath>
</defs>
</svg>
