<svg width="24" height="24" viewBox="0 0 24 24" fill="none" xmlns="http://www.w3.org/2000/svg">
<path d="M8.18182 22C7.58182 22 7.06818 21.8042 6.64091 21.4125C6.21364 21.0208 6 20.55 6 20V10.45C6 10.0167 6.13636 9.62917 6.40909 9.2875C6.68182 8.94583 7.03636 8.7 7.47273 8.55L8.50909 8.2C8.76364 8.11667 8.95455 7.99583 9.08182 7.8375C9.20909 7.67917 9.27273 7.48333 9.27273 7.25V3C9.27273 2.71667 9.37727 2.47917 9.58636 2.2875C9.79546 2.09583 10.0545 2 10.3636 2H13.6364C13.9455 2 14.2045 2.09583 14.4136 2.2875C14.6227 2.47917 14.7273 2.71667 14.7273 3V7.25C14.7273 7.48333 14.7909 7.67917 14.9182 7.8375C15.0455 7.99583 15.2364 8.11667 15.4909 8.2L16.5273 8.55C16.9636 8.7 17.3182 8.94583 17.5909 9.2875C17.8636 9.62917 18 10.0167 18 10.45V20C18 20.55 17.7864 21.0208 17.3591 21.4125C16.9318 21.8042 16.4182 22 15.8182 22H8.18182ZM11.4545 5H12.5455V4H11.4545V5ZM8.18182 12H15.8182V10.45L14.7818 10.1C14.0909 9.86667 13.5455 9.5 13.1455 9C12.7455 8.5 12.5455 7.93333 12.5455 7.3V7H11.4545V7.3C11.4545 7.93333 11.2545 8.5 10.8545 9C10.4545 9.5 9.90909 9.86667 9.21818 10.1L8.18182 10.45V12ZM8.18182 20H15.8182V18H8.18182V20ZM8.18182 16H15.8182V14H8.18182V16Z" fill="#994409"/>
</svg>
