<svg width="24" height="24" viewBox="0 0 24 24" fill="none" xmlns="http://www.w3.org/2000/svg">
<path d="M20.4 21.8L17.375 18.775C16.9583 19.0417 16.5167 19.2708 16.05 19.4625C15.5833 19.6542 15.1 19.8083 14.6 19.925V17.875C14.8333 17.7917 15.0625 17.7083 15.2875 17.625C15.5125 17.5417 15.725 17.4417 15.925 17.325L12.6 14V19.2L7.6 14.2H3.6V8.2H6.8L2 3.4L3.4 2L21.8 20.4L20.4 21.8ZM20.2 16L18.75 14.55C19.0333 14.0333 19.2458 13.4917 19.3875 12.925C19.5292 12.3583 19.6 11.775 19.6 11.175C19.6 9.60833 19.1417 8.20833 18.225 6.975C17.3083 5.74167 16.1 4.90833 14.6 4.475V2.425C16.6667 2.89167 18.35 3.9375 19.65 5.5625C20.95 7.1875 21.6 9.05833 21.6 11.175C21.6 12.0583 21.4792 12.9083 21.2375 13.725C20.9958 14.5417 20.65 15.3 20.2 16ZM16.85 12.65L14.6 10.4V7.15C15.3833 7.51667 15.9958 8.06667 16.4375 8.8C16.8792 9.53333 17.1 10.3333 17.1 11.2C17.1 11.45 17.0792 11.6958 17.0375 11.9375C16.9958 12.1792 16.9333 12.4167 16.85 12.65ZM12.6 8.4L10 5.8L12.6 3.2V8.4ZM10.6 14.35V12L8.8 10.2H5.6V12.2H8.45L10.6 14.35Z" fill="#994409"/>
</svg>
